<?xml version="1.0" standalone="no"?>
<!DOCTYPE svg PUBLIC "-//W3C//DTD SVG 20010904//EN"
 "http://www.w3.org/TR/2001/REC-SVG-20010904/DTD/svg10.dtd">
<svg version="1.0" xmlns="http://www.w3.org/2000/svg"
 width="3464.000000pt" height="3464.000000pt" viewBox="0 0 3464.000000 3464.000000"
 preserveAspectRatio="xMidYMid meet">

<g transform="translate(0.000000,3464.000000) scale(0.100000,-0.100000)"
fill="#000000" stroke="none">
<path d="M11480 31753 c-203 -25 -331 -49 -385 -73 -11 -5 -31 -12 -45 -15
-14 -4 -72 -30 -130 -58 -237 -115 -429 -282 -574 -502 -55 -81 -117 -199
-131 -245 -4 -14 -11 -29 -15 -35 -7 -10 -31 -89 -67 -215 -16 -60 -18 -133
-23 -893 -5 -806 -6 -829 -24 -843 -17 -12 -152 -14 -865 -15 -820 -1 -919 -3
-1121 -28 -164 -20 -419 -72 -555 -111 -38 -12 -88 -26 -110 -31 -22 -6 -71
-21 -110 -35 -38 -14 -87 -30 -108 -35 -20 -5 -67 -22 -105 -38 -37 -16 -92
-39 -122 -51 -118 -47 -304 -137 -415 -200 -44 -25 -87 -49 -95 -53 -54 -26
-245 -150 -349 -227 -137 -102 -205 -153 -217 -164 -6 -6 -37 -33 -70 -61
-282 -239 -548 -539 -790 -891 -123 -180 -316 -544 -403 -764 -12 -30 -26 -64
-31 -75 -5 -11 -16 -40 -25 -65 -8 -25 -25 -72 -37 -105 -11 -33 -24 -73 -29
-90 -4 -16 -17 -61 -29 -100 -76 -252 -118 -485 -160 -889 -14 -137 -14
-17795 0 -17932 33 -315 62 -521 80 -569 6 -15 10 -37 10 -50 0 -12 6 -45 14
-71 8 -27 24 -87 36 -134 25 -94 57 -204 70 -235 5 -11 12 -31 15 -45 8 -32
50 -143 87 -227 10 -23 18 -44 18 -47 0 -12 158 -340 193 -401 7 -11 30 -52
51 -90 80 -142 329 -502 376 -545 3 -3 35 -41 70 -85 90 -112 405 -424 528
-524 143 -115 279 -215 402 -295 58 -38 117 -77 132 -87 15 -11 38 -24 50 -29
13 -6 50 -26 83 -45 96 -55 445 -225 464 -225 7 0 49 -16 126 -50 48 -21 294
-98 430 -135 120 -32 335 -74 510 -99 301 -42 27 -41 9230 -41 9211 0 8958 -1
9240 41 239 36 490 85 524 103 9 5 34 12 56 15 44 8 321 99 372 122 17 8 36
14 43 14 7 0 24 6 38 14 15 8 71 33 125 56 98 42 346 165 402 200 17 11 44 26
60 35 17 8 42 23 56 32 15 10 51 33 80 51 30 18 88 57 129 87 41 30 93 67 115
82 39 27 214 167 285 228 19 16 109 104 200 195 155 155 245 256 366 410 100
128 246 346 328 490 20 36 40 72 45 80 29 48 191 384 191 396 0 3 6 20 14 37
34 76 56 130 56 139 0 6 6 24 13 41 19 45 77 221 94 287 74 285 115 492 133
680 6 58 15 146 20 195 14 127 13 17798 0 17925 -6 52 -15 140 -20 195 -16
169 -82 515 -125 650 -7 22 -20 67 -30 100 -21 69 -62 196 -75 228 -5 12 -25
65 -45 117 -97 248 -284 608 -419 804 -295 429 -598 752 -991 1054 -55 42
-168 123 -200 142 -22 13 -44 28 -50 33 -71 59 -426 252 -630 342 -91 41 -205
85 -219 85 -8 0 -17 4 -21 9 -3 5 -20 13 -38 17 -17 3 -45 12 -62 19 -16 7
-64 23 -105 35 -41 12 -93 28 -115 35 -126 40 -440 104 -615 126 -202 25 -301
27 -1121 28 -713 1 -848 3 -865 15 -18 14 -19 37 -24 843 -5 760 -7 833 -23
893 -36 126 -60 205 -67 215 -4 6 -11 21 -15 35 -12 42 -72 157 -122 233 -88
136 -181 240 -303 337 -127 101 -248 171 -375 220 -33 12 -69 26 -80 31 -65
26 -173 47 -365 69 -95 11 -327 -9 -412 -35 -26 -8 -54 -15 -63 -15 -26 0
-264 -98 -320 -133 -283 -173 -478 -383 -598 -647 -60 -133 -64 -144 -118
-365 -9 -37 -13 -262 -16 -859 -3 -562 -7 -814 -15 -823 -16 -19 -8620 -19
-8636 0 -8 9 -12 261 -15 823 -3 597 -7 822 -16 859 -54 221 -58 232 -118 365
-120 263 -325 485 -598 647 -80 47 -290 133 -326 133 -11 0 -29 5 -39 10 -37
20 -340 52 -410 43z m-1382 -5786 c8 -9 12 -264 14 -838 3 -887 0 -825 54
-1009 81 -275 260 -536 489 -715 148 -115 314 -202 475 -248 176 -51 188 -52
415 -52 224 0 320 12 413 51 18 8 40 14 48 14 17 0 43 11 174 73 231 109 435
291 585 522 90 139 172 343 195 489 6 38 14 74 18 80 4 6 9 378 12 826 l5 815
4325 0 4325 0 5 -815 c3 -448 8 -820 12 -826 4 -6 12 -42 18 -80 21 -130 78
-282 164 -439 49 -89 161 -230 255 -322 47 -45 88 -83 91 -83 4 0 18 -9 31
-21 76 -67 363 -219 413 -219 8 0 30 -6 48 -14 93 -39 189 -51 413 -51 227 0
239 1 415 52 135 38 283 110 426 208 119 80 332 312 394 429 83 155 92 176
139 306 7 19 17 58 22 87 5 29 15 65 22 80 9 21 13 223 15 857 2 575 6 834 14
843 8 10 162 13 792 12 429 0 801 -4 826 -9 25 -4 74 -13 110 -20 87 -15 197
-50 286 -91 23 -10 44 -19 47 -19 4 0 46 -23 94 -52 336 -197 581 -516 679
-883 50 -189 48 -89 51 -2457 3 -2204 3 -2208 -17 -2228 l-20 -20 -10070 0
-10070 0 -20 20 c-20 20 -20 24 -17 2228 3 2005 5 2216 20 2307 20 121 64 276
96 343 94 196 166 305 280 425 213 224 489 379 761 427 36 7 83 15 105 20 22
4 394 8 826 9 636 1 789 -1 797 -12z m17321 -8661 c8 -10 10 -1324 8 -5112 -4
-4517 -6 -5109 -19 -5189 -53 -310 -163 -537 -383 -784 -35 -39 -213 -190
-235 -199 -8 -3 -33 -18 -55 -33 -109 -74 -282 -143 -460 -185 -78 -19 -301
-19 -8955 -19 -8578 0 -8878 1 -8955 18 -113 26 -273 82 -352 123 -230 120
-425 297 -571 516 -45 68 -127 242 -152 323 -12 39 -26 84 -32 100 -5 17 -18
99 -28 184 -20 152 -20 256 -20 5201 0 3911 3 5049 12 5058 19 19 20181 17
20197 -2z"/>
<path d="M11480 14433 c-186 -21 -331 -49 -385 -73 -11 -5 -31 -12 -45 -15
-14 -4 -72 -30 -130 -58 -237 -115 -429 -282 -574 -502 -55 -81 -117 -199
-131 -245 -4 -14 -11 -29 -15 -35 -8 -11 -40 -117 -67 -220 -17 -66 -18 -161
-18 -1735 0 -1588 1 -1669 19 -1745 10 -44 24 -95 32 -113 8 -18 14 -40 14
-48 0 -17 11 -43 73 -174 109 -231 291 -435 522 -585 134 -87 340 -170 480
-194 33 -6 87 -15 120 -21 83 -14 3147 -14 3230 0 33 6 87 15 120 21 104 18
212 55 355 124 87 42 121 63 230 146 182 136 323 308 417 509 62 131 73 157
73 174 0 8 6 30 14 48 8 18 23 71 33 118 17 81 18 171 18 1745 0 1570 -1 1664
-18 1730 -27 105 -59 207 -74 235 -7 14 -13 29 -13 33 0 16 -70 148 -117 220
-88 136 -181 240 -303 337 -127 101 -248 171 -375 220 -33 12 -69 26 -80 31
-38 15 -150 41 -245 57 -83 13 -291 16 -1610 17 -833 1 -1531 0 -1550 -2z"/>
</g>
</svg>
